<?xml version="1.0" encoding="UTF-8" standalone="no"?>
<!DOCTYPE svg PUBLIC "-//W3C//DTD SVG 1.1//EN" "http://www.w3.org/Graphics/SVG/1.1/DTD/svg11.dtd">
<svg width="100%" height="100%" viewBox="0 0 339 249" version="1.1" xmlns="http://www.w3.org/2000/svg" xmlns:xlink="http://www.w3.org/1999/xlink" xml:space="preserve" xmlns:serif="http://www.serif.com/" style="fill-rule:evenodd;clip-rule:evenodd;stroke-linejoin:round;stroke-miterlimit:2;">
    <g transform="matrix(1,0,0,1,-86.9623,-126.722)">
        <path d="M215.402,252.747C205.868,244.62 199.817,232.522 199.817,219.022C199.817,194.571 219.668,174.719 244.12,174.719C268.572,174.719 288.423,194.571 288.423,219.022C288.423,232.522 282.372,244.62 272.838,252.747L215.402,252.747Z" style="fill:rgb(0,238,110);"/>
        <g transform="matrix(1,0,0,1,125.94,40.8043)">
            <circle cx="118.18" cy="178.218" r="16.181" style="fill:rgb(255,252,249);"/>
        </g>
        <path d="M212.005,320.878L249.185,320.878C237.208,352.533 206.6,375.065 170.771,375.065C124.516,375.065 86.962,337.512 86.962,291.257C86.962,245.002 124.516,207.449 170.771,207.449C203.144,207.449 231.256,225.844 245.214,252.747L203.85,252.747C194.96,245.102 183.401,240.481 170.771,240.481C142.747,240.481 119.995,263.233 119.995,291.257C119.995,319.281 142.747,342.033 170.771,342.033C187.745,342.033 202.785,333.686 212.005,320.878Z" style="fill:rgb(0,238,110);"/>
        <g transform="matrix(2.2969,-1.22578,1.21303,2.27299,-154.082,157.432)">
            <path d="M120.781,60.389C121.355,59.126 122.604,58.317 123.979,58.317C125.354,58.317 126.603,59.126 127.177,60.389C131.512,69.934 138.72,85.803 138.72,85.803L109.238,85.803C109.238,85.803 116.446,69.934 120.781,60.389Z" style="fill:rgb(0,238,110);"/>
        </g>
        <g transform="matrix(1,0,0,1,88.9621,79.4398)">
            <text x="129.533px" y="214.851px" style="font-family:'SegoeUI-Bold', 'Segoe UI', sans-serif;font-weight:700;font-size:41.667px;fill:rgb(0,238,110);">eck<tspan x="194.779px " y="214.851px ">o</tspan></text>
            <text x="231.746px" y="214.851px" style="font-family:'SegoeUI-Bold', 'Segoe UI', sans-serif;font-weight:700;font-size:41.667px;fill:rgb(239,62,54);">T<tspan x="253.027px 269.771px 281.612px " y="214.851px 214.851px 214.851px ">riv</tspan>ia</text>
        </g>
        <g transform="matrix(3.21465,0,0,0.468013,-382.559,202.362)">
            <path d="M196.606,243.645C196.606,239.449 196.111,236.043 195.5,236.043L175.992,236.043C175.381,236.043 174.885,239.449 174.885,243.645L174.885,250.161C174.885,254.357 175.381,257.764 175.992,257.764L195.5,257.764C196.111,257.764 196.606,254.357 196.606,250.161L196.606,243.645Z" style="fill:rgb(0,238,110);"/>
        </g>
    </g>
</svg>
